<mxfile host="app.diagrams.net" modified="2022-08-31T15:30:33.503Z" agent="5.0 (Windows NT 10.0; Win64; x64) AppleWebKit/537.36 (KHTML, like Gecko) Chrome/104.0.5112.102 Safari/537.36" etag="7sRIFtLAvnry6QbUWdJh" version="20.2.7" type="github">
  <diagram id="qOHHcj8O4svJIANYX-TT" name="Page-1">
    <mxGraphModel dx="2077" dy="948" grid="1" gridSize="10" guides="1" tooltips="1" connect="1" arrows="1" fold="1" page="1" pageScale="1" pageWidth="1169" pageHeight="827" background="#F4F1DE" math="0" shadow="0">
      <root>
        <mxCell id="0" />
        <mxCell id="1" parent="0" />
        <mxCell id="f66HRhsKyCVgUJNF0MKL-100" style="edgeStyle=none;curved=1;rounded=0;orthogonalLoop=1;jettySize=auto;html=1;exitX=0.5;exitY=1;exitDx=0;exitDy=0;entryX=0.5;entryY=0;entryDx=0;entryDy=0;fontColor=#393C56;startArrow=ERoneToMany;startFill=0;endArrow=ERmandOne;endFill=0;startSize=14;endSize=14;sourcePerimeterSpacing=8;targetPerimeterSpacing=8;strokeColor=#E07A5F;fillColor=#F2CC8F;" edge="1" parent="1" source="f66HRhsKyCVgUJNF0MKL-1" target="f66HRhsKyCVgUJNF0MKL-44">
          <mxGeometry relative="1" as="geometry" />
        </mxCell>
        <mxCell id="f66HRhsKyCVgUJNF0MKL-1" value="Kaset" style="shape=table;startSize=30;container=1;collapsible=1;childLayout=tableLayout;fixedRows=1;rowLines=0;fontStyle=1;align=center;resizeLast=1;hachureGap=4;fontColor=#393C56;strokeColor=#E07A5F;fillColor=#F2CC8F;" vertex="1" parent="1">
          <mxGeometry x="90" y="100" width="180" height="160" as="geometry" />
        </mxCell>
        <mxCell id="f66HRhsKyCVgUJNF0MKL-2" value="" style="shape=tableRow;horizontal=0;startSize=0;swimlaneHead=0;swimlaneBody=0;fillColor=none;collapsible=0;dropTarget=0;points=[[0,0.5],[1,0.5]];portConstraint=eastwest;top=0;left=0;right=0;bottom=1;hachureGap=4;fontColor=#393C56;strokeColor=#E07A5F;" vertex="1" parent="f66HRhsKyCVgUJNF0MKL-1">
          <mxGeometry y="30" width="180" height="30" as="geometry" />
        </mxCell>
        <mxCell id="f66HRhsKyCVgUJNF0MKL-3" value="PK" style="shape=partialRectangle;connectable=0;fillColor=none;top=0;left=0;bottom=0;right=0;fontStyle=1;overflow=hidden;hachureGap=4;fontColor=#393C56;strokeColor=#E07A5F;" vertex="1" parent="f66HRhsKyCVgUJNF0MKL-2">
          <mxGeometry width="30" height="30" as="geometry">
            <mxRectangle width="30" height="30" as="alternateBounds" />
          </mxGeometry>
        </mxCell>
        <mxCell id="f66HRhsKyCVgUJNF0MKL-4" value="id_kaset" style="shape=partialRectangle;connectable=0;fillColor=none;top=0;left=0;bottom=0;right=0;align=left;spacingLeft=6;fontStyle=5;overflow=hidden;hachureGap=4;fontColor=#393C56;strokeColor=#E07A5F;" vertex="1" parent="f66HRhsKyCVgUJNF0MKL-2">
          <mxGeometry x="30" width="150" height="30" as="geometry">
            <mxRectangle width="150" height="30" as="alternateBounds" />
          </mxGeometry>
        </mxCell>
        <mxCell id="f66HRhsKyCVgUJNF0MKL-5" value="" style="shape=tableRow;horizontal=0;startSize=0;swimlaneHead=0;swimlaneBody=0;fillColor=none;collapsible=0;dropTarget=0;points=[[0,0.5],[1,0.5]];portConstraint=eastwest;top=0;left=0;right=0;bottom=0;hachureGap=4;fontColor=#393C56;strokeColor=#E07A5F;" vertex="1" parent="f66HRhsKyCVgUJNF0MKL-1">
          <mxGeometry y="60" width="180" height="30" as="geometry" />
        </mxCell>
        <mxCell id="f66HRhsKyCVgUJNF0MKL-6" value="" style="shape=partialRectangle;connectable=0;fillColor=none;top=0;left=0;bottom=0;right=0;editable=1;overflow=hidden;hachureGap=4;fontColor=#393C56;strokeColor=#E07A5F;" vertex="1" parent="f66HRhsKyCVgUJNF0MKL-5">
          <mxGeometry width="30" height="30" as="geometry">
            <mxRectangle width="30" height="30" as="alternateBounds" />
          </mxGeometry>
        </mxCell>
        <mxCell id="f66HRhsKyCVgUJNF0MKL-7" value="judul" style="shape=partialRectangle;connectable=0;fillColor=none;top=0;left=0;bottom=0;right=0;align=left;spacingLeft=6;overflow=hidden;hachureGap=4;fontColor=#393C56;strokeColor=#E07A5F;" vertex="1" parent="f66HRhsKyCVgUJNF0MKL-5">
          <mxGeometry x="30" width="150" height="30" as="geometry">
            <mxRectangle width="150" height="30" as="alternateBounds" />
          </mxGeometry>
        </mxCell>
        <mxCell id="f66HRhsKyCVgUJNF0MKL-8" value="" style="shape=tableRow;horizontal=0;startSize=0;swimlaneHead=0;swimlaneBody=0;fillColor=none;collapsible=0;dropTarget=0;points=[[0,0.5],[1,0.5]];portConstraint=eastwest;top=0;left=0;right=0;bottom=0;hachureGap=4;fontColor=#393C56;strokeColor=#E07A5F;" vertex="1" parent="f66HRhsKyCVgUJNF0MKL-1">
          <mxGeometry y="90" width="180" height="30" as="geometry" />
        </mxCell>
        <mxCell id="f66HRhsKyCVgUJNF0MKL-9" value="" style="shape=partialRectangle;connectable=0;fillColor=none;top=0;left=0;bottom=0;right=0;editable=1;overflow=hidden;hachureGap=4;fontColor=#393C56;strokeColor=#E07A5F;" vertex="1" parent="f66HRhsKyCVgUJNF0MKL-8">
          <mxGeometry width="30" height="30" as="geometry">
            <mxRectangle width="30" height="30" as="alternateBounds" />
          </mxGeometry>
        </mxCell>
        <mxCell id="f66HRhsKyCVgUJNF0MKL-10" value="pembuat" style="shape=partialRectangle;connectable=0;fillColor=none;top=0;left=0;bottom=0;right=0;align=left;spacingLeft=6;overflow=hidden;hachureGap=4;fontColor=#393C56;strokeColor=#E07A5F;" vertex="1" parent="f66HRhsKyCVgUJNF0MKL-8">
          <mxGeometry x="30" width="150" height="30" as="geometry">
            <mxRectangle width="150" height="30" as="alternateBounds" />
          </mxGeometry>
        </mxCell>
        <mxCell id="f66HRhsKyCVgUJNF0MKL-11" value="" style="shape=tableRow;horizontal=0;startSize=0;swimlaneHead=0;swimlaneBody=0;fillColor=none;collapsible=0;dropTarget=0;points=[[0,0.5],[1,0.5]];portConstraint=eastwest;top=0;left=0;right=0;bottom=0;hachureGap=4;fontColor=#393C56;strokeColor=#E07A5F;" vertex="1" parent="f66HRhsKyCVgUJNF0MKL-1">
          <mxGeometry y="120" width="180" height="30" as="geometry" />
        </mxCell>
        <mxCell id="f66HRhsKyCVgUJNF0MKL-12" value="" style="shape=partialRectangle;connectable=0;fillColor=none;top=0;left=0;bottom=0;right=0;editable=1;overflow=hidden;hachureGap=4;fontColor=#393C56;strokeColor=#E07A5F;" vertex="1" parent="f66HRhsKyCVgUJNF0MKL-11">
          <mxGeometry width="30" height="30" as="geometry">
            <mxRectangle width="30" height="30" as="alternateBounds" />
          </mxGeometry>
        </mxCell>
        <mxCell id="f66HRhsKyCVgUJNF0MKL-13" value="tahun_terbit" style="shape=partialRectangle;connectable=0;fillColor=none;top=0;left=0;bottom=0;right=0;align=left;spacingLeft=6;overflow=hidden;hachureGap=4;fontColor=#393C56;strokeColor=#E07A5F;" vertex="1" parent="f66HRhsKyCVgUJNF0MKL-11">
          <mxGeometry x="30" width="150" height="30" as="geometry">
            <mxRectangle width="150" height="30" as="alternateBounds" />
          </mxGeometry>
        </mxCell>
        <mxCell id="f66HRhsKyCVgUJNF0MKL-14" value="Member" style="shape=table;startSize=30;container=1;collapsible=1;childLayout=tableLayout;fixedRows=1;rowLines=0;fontStyle=1;align=center;resizeLast=1;hachureGap=4;fontColor=#393C56;strokeColor=#E07A5F;fillColor=#F2CC8F;" vertex="1" parent="1">
          <mxGeometry x="780" y="100" width="180" height="160" as="geometry" />
        </mxCell>
        <mxCell id="f66HRhsKyCVgUJNF0MKL-15" value="" style="shape=tableRow;horizontal=0;startSize=0;swimlaneHead=0;swimlaneBody=0;fillColor=none;collapsible=0;dropTarget=0;points=[[0,0.5],[1,0.5]];portConstraint=eastwest;top=0;left=0;right=0;bottom=1;hachureGap=4;fontColor=#393C56;strokeColor=#E07A5F;" vertex="1" parent="f66HRhsKyCVgUJNF0MKL-14">
          <mxGeometry y="30" width="180" height="30" as="geometry" />
        </mxCell>
        <mxCell id="f66HRhsKyCVgUJNF0MKL-16" value="PK" style="shape=partialRectangle;connectable=0;fillColor=none;top=0;left=0;bottom=0;right=0;fontStyle=1;overflow=hidden;hachureGap=4;fontColor=#393C56;strokeColor=#E07A5F;" vertex="1" parent="f66HRhsKyCVgUJNF0MKL-15">
          <mxGeometry width="30" height="30" as="geometry">
            <mxRectangle width="30" height="30" as="alternateBounds" />
          </mxGeometry>
        </mxCell>
        <mxCell id="f66HRhsKyCVgUJNF0MKL-17" value="id_member" style="shape=partialRectangle;connectable=0;fillColor=none;top=0;left=0;bottom=0;right=0;align=left;spacingLeft=6;fontStyle=5;overflow=hidden;hachureGap=4;fontColor=#393C56;strokeColor=#E07A5F;" vertex="1" parent="f66HRhsKyCVgUJNF0MKL-15">
          <mxGeometry x="30" width="150" height="30" as="geometry">
            <mxRectangle width="150" height="30" as="alternateBounds" />
          </mxGeometry>
        </mxCell>
        <mxCell id="f66HRhsKyCVgUJNF0MKL-18" value="" style="shape=tableRow;horizontal=0;startSize=0;swimlaneHead=0;swimlaneBody=0;fillColor=none;collapsible=0;dropTarget=0;points=[[0,0.5],[1,0.5]];portConstraint=eastwest;top=0;left=0;right=0;bottom=0;hachureGap=4;fontColor=#393C56;strokeColor=#E07A5F;" vertex="1" parent="f66HRhsKyCVgUJNF0MKL-14">
          <mxGeometry y="60" width="180" height="30" as="geometry" />
        </mxCell>
        <mxCell id="f66HRhsKyCVgUJNF0MKL-19" value="" style="shape=partialRectangle;connectable=0;fillColor=none;top=0;left=0;bottom=0;right=0;editable=1;overflow=hidden;hachureGap=4;fontColor=#393C56;strokeColor=#E07A5F;" vertex="1" parent="f66HRhsKyCVgUJNF0MKL-18">
          <mxGeometry width="30" height="30" as="geometry">
            <mxRectangle width="30" height="30" as="alternateBounds" />
          </mxGeometry>
        </mxCell>
        <mxCell id="f66HRhsKyCVgUJNF0MKL-20" value="nama" style="shape=partialRectangle;connectable=0;fillColor=none;top=0;left=0;bottom=0;right=0;align=left;spacingLeft=6;overflow=hidden;hachureGap=4;fontColor=#393C56;strokeColor=#E07A5F;" vertex="1" parent="f66HRhsKyCVgUJNF0MKL-18">
          <mxGeometry x="30" width="150" height="30" as="geometry">
            <mxRectangle width="150" height="30" as="alternateBounds" />
          </mxGeometry>
        </mxCell>
        <mxCell id="f66HRhsKyCVgUJNF0MKL-21" value="" style="shape=tableRow;horizontal=0;startSize=0;swimlaneHead=0;swimlaneBody=0;fillColor=none;collapsible=0;dropTarget=0;points=[[0,0.5],[1,0.5]];portConstraint=eastwest;top=0;left=0;right=0;bottom=0;hachureGap=4;fontColor=#393C56;strokeColor=#E07A5F;" vertex="1" parent="f66HRhsKyCVgUJNF0MKL-14">
          <mxGeometry y="90" width="180" height="30" as="geometry" />
        </mxCell>
        <mxCell id="f66HRhsKyCVgUJNF0MKL-22" value="" style="shape=partialRectangle;connectable=0;fillColor=none;top=0;left=0;bottom=0;right=0;editable=1;overflow=hidden;hachureGap=4;fontColor=#393C56;strokeColor=#E07A5F;" vertex="1" parent="f66HRhsKyCVgUJNF0MKL-21">
          <mxGeometry width="30" height="30" as="geometry">
            <mxRectangle width="30" height="30" as="alternateBounds" />
          </mxGeometry>
        </mxCell>
        <mxCell id="f66HRhsKyCVgUJNF0MKL-23" value="alamat" style="shape=partialRectangle;connectable=0;fillColor=none;top=0;left=0;bottom=0;right=0;align=left;spacingLeft=6;overflow=hidden;hachureGap=4;fontColor=#393C56;strokeColor=#E07A5F;" vertex="1" parent="f66HRhsKyCVgUJNF0MKL-21">
          <mxGeometry x="30" width="150" height="30" as="geometry">
            <mxRectangle width="150" height="30" as="alternateBounds" />
          </mxGeometry>
        </mxCell>
        <mxCell id="f66HRhsKyCVgUJNF0MKL-24" value="" style="shape=tableRow;horizontal=0;startSize=0;swimlaneHead=0;swimlaneBody=0;fillColor=none;collapsible=0;dropTarget=0;points=[[0,0.5],[1,0.5]];portConstraint=eastwest;top=0;left=0;right=0;bottom=0;hachureGap=4;fontColor=#393C56;strokeColor=#E07A5F;" vertex="1" parent="f66HRhsKyCVgUJNF0MKL-14">
          <mxGeometry y="120" width="180" height="30" as="geometry" />
        </mxCell>
        <mxCell id="f66HRhsKyCVgUJNF0MKL-25" value="" style="shape=partialRectangle;connectable=0;fillColor=none;top=0;left=0;bottom=0;right=0;editable=1;overflow=hidden;hachureGap=4;fontColor=#393C56;strokeColor=#E07A5F;" vertex="1" parent="f66HRhsKyCVgUJNF0MKL-24">
          <mxGeometry width="30" height="30" as="geometry">
            <mxRectangle width="30" height="30" as="alternateBounds" />
          </mxGeometry>
        </mxCell>
        <mxCell id="f66HRhsKyCVgUJNF0MKL-26" value="no_hp" style="shape=partialRectangle;connectable=0;fillColor=none;top=0;left=0;bottom=0;right=0;align=left;spacingLeft=6;overflow=hidden;hachureGap=4;fontColor=#393C56;strokeColor=#E07A5F;" vertex="1" parent="f66HRhsKyCVgUJNF0MKL-24">
          <mxGeometry x="30" width="150" height="30" as="geometry">
            <mxRectangle width="150" height="30" as="alternateBounds" />
          </mxGeometry>
        </mxCell>
        <mxCell id="f66HRhsKyCVgUJNF0MKL-27" value="Sewa" style="shape=table;startSize=30;container=1;collapsible=1;childLayout=tableLayout;fixedRows=1;rowLines=0;fontStyle=1;align=center;resizeLast=1;hachureGap=4;fontColor=#393C56;strokeColor=#E07A5F;fillColor=#F2CC8F;" vertex="1" parent="1">
          <mxGeometry x="440" y="100" width="180" height="160" as="geometry" />
        </mxCell>
        <mxCell id="f66HRhsKyCVgUJNF0MKL-28" value="" style="shape=tableRow;horizontal=0;startSize=0;swimlaneHead=0;swimlaneBody=0;fillColor=none;collapsible=0;dropTarget=0;points=[[0,0.5],[1,0.5]];portConstraint=eastwest;top=0;left=0;right=0;bottom=1;hachureGap=4;fontColor=#393C56;strokeColor=#E07A5F;" vertex="1" parent="f66HRhsKyCVgUJNF0MKL-27">
          <mxGeometry y="30" width="180" height="30" as="geometry" />
        </mxCell>
        <mxCell id="f66HRhsKyCVgUJNF0MKL-29" value="PK" style="shape=partialRectangle;connectable=0;fillColor=none;top=0;left=0;bottom=0;right=0;fontStyle=1;overflow=hidden;hachureGap=4;fontColor=#393C56;strokeColor=#E07A5F;" vertex="1" parent="f66HRhsKyCVgUJNF0MKL-28">
          <mxGeometry width="30" height="30" as="geometry">
            <mxRectangle width="30" height="30" as="alternateBounds" />
          </mxGeometry>
        </mxCell>
        <mxCell id="f66HRhsKyCVgUJNF0MKL-30" value="id_sewa" style="shape=partialRectangle;connectable=0;fillColor=none;top=0;left=0;bottom=0;right=0;align=left;spacingLeft=6;fontStyle=5;overflow=hidden;hachureGap=4;fontColor=#393C56;strokeColor=#E07A5F;" vertex="1" parent="f66HRhsKyCVgUJNF0MKL-28">
          <mxGeometry x="30" width="150" height="30" as="geometry">
            <mxRectangle width="150" height="30" as="alternateBounds" />
          </mxGeometry>
        </mxCell>
        <mxCell id="f66HRhsKyCVgUJNF0MKL-31" value="" style="shape=tableRow;horizontal=0;startSize=0;swimlaneHead=0;swimlaneBody=0;fillColor=none;collapsible=0;dropTarget=0;points=[[0,0.5],[1,0.5]];portConstraint=eastwest;top=0;left=0;right=0;bottom=0;hachureGap=4;fontColor=#393C56;strokeColor=#E07A5F;" vertex="1" parent="f66HRhsKyCVgUJNF0MKL-27">
          <mxGeometry y="60" width="180" height="30" as="geometry" />
        </mxCell>
        <mxCell id="f66HRhsKyCVgUJNF0MKL-32" value="" style="shape=partialRectangle;connectable=0;fillColor=none;top=0;left=0;bottom=0;right=0;editable=1;overflow=hidden;hachureGap=4;fontColor=#393C56;strokeColor=#E07A5F;" vertex="1" parent="f66HRhsKyCVgUJNF0MKL-31">
          <mxGeometry width="30" height="30" as="geometry">
            <mxRectangle width="30" height="30" as="alternateBounds" />
          </mxGeometry>
        </mxCell>
        <mxCell id="f66HRhsKyCVgUJNF0MKL-33" value="id_kaset" style="shape=partialRectangle;connectable=0;fillColor=none;top=0;left=0;bottom=0;right=0;align=left;spacingLeft=6;overflow=hidden;hachureGap=4;fontColor=#393C56;strokeColor=#E07A5F;" vertex="1" parent="f66HRhsKyCVgUJNF0MKL-31">
          <mxGeometry x="30" width="150" height="30" as="geometry">
            <mxRectangle width="150" height="30" as="alternateBounds" />
          </mxGeometry>
        </mxCell>
        <mxCell id="f66HRhsKyCVgUJNF0MKL-34" value="" style="shape=tableRow;horizontal=0;startSize=0;swimlaneHead=0;swimlaneBody=0;fillColor=none;collapsible=0;dropTarget=0;points=[[0,0.5],[1,0.5]];portConstraint=eastwest;top=0;left=0;right=0;bottom=0;hachureGap=4;fontColor=#393C56;strokeColor=#E07A5F;" vertex="1" parent="f66HRhsKyCVgUJNF0MKL-27">
          <mxGeometry y="90" width="180" height="30" as="geometry" />
        </mxCell>
        <mxCell id="f66HRhsKyCVgUJNF0MKL-35" value="" style="shape=partialRectangle;connectable=0;fillColor=none;top=0;left=0;bottom=0;right=0;editable=1;overflow=hidden;hachureGap=4;fontColor=#393C56;strokeColor=#E07A5F;" vertex="1" parent="f66HRhsKyCVgUJNF0MKL-34">
          <mxGeometry width="30" height="30" as="geometry">
            <mxRectangle width="30" height="30" as="alternateBounds" />
          </mxGeometry>
        </mxCell>
        <mxCell id="f66HRhsKyCVgUJNF0MKL-36" value="id_member" style="shape=partialRectangle;connectable=0;fillColor=none;top=0;left=0;bottom=0;right=0;align=left;spacingLeft=6;overflow=hidden;hachureGap=4;fontColor=#393C56;strokeColor=#E07A5F;" vertex="1" parent="f66HRhsKyCVgUJNF0MKL-34">
          <mxGeometry x="30" width="150" height="30" as="geometry">
            <mxRectangle width="150" height="30" as="alternateBounds" />
          </mxGeometry>
        </mxCell>
        <mxCell id="f66HRhsKyCVgUJNF0MKL-37" value="" style="shape=tableRow;horizontal=0;startSize=0;swimlaneHead=0;swimlaneBody=0;fillColor=none;collapsible=0;dropTarget=0;points=[[0,0.5],[1,0.5]];portConstraint=eastwest;top=0;left=0;right=0;bottom=0;hachureGap=4;fontColor=#393C56;strokeColor=#E07A5F;" vertex="1" parent="f66HRhsKyCVgUJNF0MKL-27">
          <mxGeometry y="120" width="180" height="30" as="geometry" />
        </mxCell>
        <mxCell id="f66HRhsKyCVgUJNF0MKL-38" value="" style="shape=partialRectangle;connectable=0;fillColor=none;top=0;left=0;bottom=0;right=0;editable=1;overflow=hidden;hachureGap=4;fontColor=#393C56;strokeColor=#E07A5F;" vertex="1" parent="f66HRhsKyCVgUJNF0MKL-37">
          <mxGeometry width="30" height="30" as="geometry">
            <mxRectangle width="30" height="30" as="alternateBounds" />
          </mxGeometry>
        </mxCell>
        <mxCell id="f66HRhsKyCVgUJNF0MKL-39" value="Row 3" style="shape=partialRectangle;connectable=0;fillColor=none;top=0;left=0;bottom=0;right=0;align=left;spacingLeft=6;overflow=hidden;hachureGap=4;fontColor=#393C56;strokeColor=#E07A5F;" vertex="1" parent="f66HRhsKyCVgUJNF0MKL-37">
          <mxGeometry x="30" width="150" height="30" as="geometry">
            <mxRectangle width="150" height="30" as="alternateBounds" />
          </mxGeometry>
        </mxCell>
        <mxCell id="f66HRhsKyCVgUJNF0MKL-44" value="Ruang" style="shape=table;startSize=30;container=1;collapsible=1;childLayout=tableLayout;fixedRows=1;rowLines=0;fontStyle=1;align=center;resizeLast=1;hachureGap=4;fontColor=#393C56;strokeColor=#E07A5F;fillColor=#F2CC8F;" vertex="1" parent="1">
          <mxGeometry x="90" y="380" width="180" height="160" as="geometry" />
        </mxCell>
        <mxCell id="f66HRhsKyCVgUJNF0MKL-45" value="" style="shape=tableRow;horizontal=0;startSize=0;swimlaneHead=0;swimlaneBody=0;fillColor=none;collapsible=0;dropTarget=0;points=[[0,0.5],[1,0.5]];portConstraint=eastwest;top=0;left=0;right=0;bottom=1;hachureGap=4;fontColor=#393C56;strokeColor=#E07A5F;" vertex="1" parent="f66HRhsKyCVgUJNF0MKL-44">
          <mxGeometry y="30" width="180" height="30" as="geometry" />
        </mxCell>
        <mxCell id="f66HRhsKyCVgUJNF0MKL-46" value="PK" style="shape=partialRectangle;connectable=0;fillColor=none;top=0;left=0;bottom=0;right=0;fontStyle=1;overflow=hidden;hachureGap=4;fontColor=#393C56;strokeColor=#E07A5F;" vertex="1" parent="f66HRhsKyCVgUJNF0MKL-45">
          <mxGeometry width="30" height="30" as="geometry">
            <mxRectangle width="30" height="30" as="alternateBounds" />
          </mxGeometry>
        </mxCell>
        <mxCell id="f66HRhsKyCVgUJNF0MKL-47" value="id_ruang" style="shape=partialRectangle;connectable=0;fillColor=none;top=0;left=0;bottom=0;right=0;align=left;spacingLeft=6;fontStyle=5;overflow=hidden;hachureGap=4;fontColor=#393C56;strokeColor=#E07A5F;" vertex="1" parent="f66HRhsKyCVgUJNF0MKL-45">
          <mxGeometry x="30" width="150" height="30" as="geometry">
            <mxRectangle width="150" height="30" as="alternateBounds" />
          </mxGeometry>
        </mxCell>
        <mxCell id="f66HRhsKyCVgUJNF0MKL-48" value="" style="shape=tableRow;horizontal=0;startSize=0;swimlaneHead=0;swimlaneBody=0;fillColor=none;collapsible=0;dropTarget=0;points=[[0,0.5],[1,0.5]];portConstraint=eastwest;top=0;left=0;right=0;bottom=0;hachureGap=4;fontColor=#393C56;strokeColor=#E07A5F;" vertex="1" parent="f66HRhsKyCVgUJNF0MKL-44">
          <mxGeometry y="60" width="180" height="30" as="geometry" />
        </mxCell>
        <mxCell id="f66HRhsKyCVgUJNF0MKL-49" value="" style="shape=partialRectangle;connectable=0;fillColor=none;top=0;left=0;bottom=0;right=0;editable=1;overflow=hidden;hachureGap=4;fontColor=#393C56;strokeColor=#E07A5F;" vertex="1" parent="f66HRhsKyCVgUJNF0MKL-48">
          <mxGeometry width="30" height="30" as="geometry">
            <mxRectangle width="30" height="30" as="alternateBounds" />
          </mxGeometry>
        </mxCell>
        <mxCell id="f66HRhsKyCVgUJNF0MKL-50" value="nama" style="shape=partialRectangle;connectable=0;fillColor=none;top=0;left=0;bottom=0;right=0;align=left;spacingLeft=6;overflow=hidden;hachureGap=4;fontColor=#393C56;strokeColor=#E07A5F;" vertex="1" parent="f66HRhsKyCVgUJNF0MKL-48">
          <mxGeometry x="30" width="150" height="30" as="geometry">
            <mxRectangle width="150" height="30" as="alternateBounds" />
          </mxGeometry>
        </mxCell>
        <mxCell id="f66HRhsKyCVgUJNF0MKL-51" value="" style="shape=tableRow;horizontal=0;startSize=0;swimlaneHead=0;swimlaneBody=0;fillColor=none;collapsible=0;dropTarget=0;points=[[0,0.5],[1,0.5]];portConstraint=eastwest;top=0;left=0;right=0;bottom=0;hachureGap=4;fontColor=#393C56;strokeColor=#E07A5F;" vertex="1" parent="f66HRhsKyCVgUJNF0MKL-44">
          <mxGeometry y="90" width="180" height="30" as="geometry" />
        </mxCell>
        <mxCell id="f66HRhsKyCVgUJNF0MKL-52" value="FK" style="shape=partialRectangle;connectable=0;fillColor=none;top=0;left=0;bottom=0;right=0;editable=1;overflow=hidden;hachureGap=4;fontColor=#393C56;strokeColor=#E07A5F;" vertex="1" parent="f66HRhsKyCVgUJNF0MKL-51">
          <mxGeometry width="30" height="30" as="geometry">
            <mxRectangle width="30" height="30" as="alternateBounds" />
          </mxGeometry>
        </mxCell>
        <mxCell id="f66HRhsKyCVgUJNF0MKL-53" value="id_genre" style="shape=partialRectangle;connectable=0;fillColor=none;top=0;left=0;bottom=0;right=0;align=left;spacingLeft=6;overflow=hidden;hachureGap=4;fontColor=#393C56;strokeColor=#E07A5F;" vertex="1" parent="f66HRhsKyCVgUJNF0MKL-51">
          <mxGeometry x="30" width="150" height="30" as="geometry">
            <mxRectangle width="150" height="30" as="alternateBounds" />
          </mxGeometry>
        </mxCell>
        <mxCell id="f66HRhsKyCVgUJNF0MKL-54" value="" style="shape=tableRow;horizontal=0;startSize=0;swimlaneHead=0;swimlaneBody=0;fillColor=none;collapsible=0;dropTarget=0;points=[[0,0.5],[1,0.5]];portConstraint=eastwest;top=0;left=0;right=0;bottom=0;hachureGap=4;fontColor=#393C56;strokeColor=#E07A5F;" vertex="1" parent="f66HRhsKyCVgUJNF0MKL-44">
          <mxGeometry y="120" width="180" height="30" as="geometry" />
        </mxCell>
        <mxCell id="f66HRhsKyCVgUJNF0MKL-55" value="FK" style="shape=partialRectangle;connectable=0;fillColor=none;top=0;left=0;bottom=0;right=0;editable=1;overflow=hidden;hachureGap=4;fontColor=#393C56;strokeColor=#E07A5F;" vertex="1" parent="f66HRhsKyCVgUJNF0MKL-54">
          <mxGeometry width="30" height="30" as="geometry">
            <mxRectangle width="30" height="30" as="alternateBounds" />
          </mxGeometry>
        </mxCell>
        <mxCell id="f66HRhsKyCVgUJNF0MKL-56" value="id_petugas" style="shape=partialRectangle;connectable=0;fillColor=none;top=0;left=0;bottom=0;right=0;align=left;spacingLeft=6;overflow=hidden;hachureGap=4;fontColor=#393C56;strokeColor=#E07A5F;" vertex="1" parent="f66HRhsKyCVgUJNF0MKL-54">
          <mxGeometry x="30" width="150" height="30" as="geometry">
            <mxRectangle width="150" height="30" as="alternateBounds" />
          </mxGeometry>
        </mxCell>
        <mxCell id="f66HRhsKyCVgUJNF0MKL-57" value="Genre" style="shape=table;startSize=30;container=1;collapsible=1;childLayout=tableLayout;fixedRows=1;rowLines=0;fontStyle=1;align=center;resizeLast=1;hachureGap=4;fontColor=#393C56;strokeColor=#E07A5F;fillColor=#F2CC8F;" vertex="1" parent="1">
          <mxGeometry x="390" y="380" width="180" height="160" as="geometry" />
        </mxCell>
        <mxCell id="f66HRhsKyCVgUJNF0MKL-58" value="" style="shape=tableRow;horizontal=0;startSize=0;swimlaneHead=0;swimlaneBody=0;fillColor=none;collapsible=0;dropTarget=0;points=[[0,0.5],[1,0.5]];portConstraint=eastwest;top=0;left=0;right=0;bottom=1;hachureGap=4;fontColor=#393C56;strokeColor=#E07A5F;" vertex="1" parent="f66HRhsKyCVgUJNF0MKL-57">
          <mxGeometry y="30" width="180" height="30" as="geometry" />
        </mxCell>
        <mxCell id="f66HRhsKyCVgUJNF0MKL-59" value="PK" style="shape=partialRectangle;connectable=0;fillColor=none;top=0;left=0;bottom=0;right=0;fontStyle=1;overflow=hidden;hachureGap=4;fontColor=#393C56;strokeColor=#E07A5F;" vertex="1" parent="f66HRhsKyCVgUJNF0MKL-58">
          <mxGeometry width="30" height="30" as="geometry">
            <mxRectangle width="30" height="30" as="alternateBounds" />
          </mxGeometry>
        </mxCell>
        <mxCell id="f66HRhsKyCVgUJNF0MKL-60" value="id_genre" style="shape=partialRectangle;connectable=0;fillColor=none;top=0;left=0;bottom=0;right=0;align=left;spacingLeft=6;fontStyle=5;overflow=hidden;hachureGap=4;fontColor=#393C56;strokeColor=#E07A5F;" vertex="1" parent="f66HRhsKyCVgUJNF0MKL-58">
          <mxGeometry x="30" width="150" height="30" as="geometry">
            <mxRectangle width="150" height="30" as="alternateBounds" />
          </mxGeometry>
        </mxCell>
        <mxCell id="f66HRhsKyCVgUJNF0MKL-61" value="" style="shape=tableRow;horizontal=0;startSize=0;swimlaneHead=0;swimlaneBody=0;fillColor=none;collapsible=0;dropTarget=0;points=[[0,0.5],[1,0.5]];portConstraint=eastwest;top=0;left=0;right=0;bottom=0;hachureGap=4;fontColor=#393C56;strokeColor=#E07A5F;" vertex="1" parent="f66HRhsKyCVgUJNF0MKL-57">
          <mxGeometry y="60" width="180" height="30" as="geometry" />
        </mxCell>
        <mxCell id="f66HRhsKyCVgUJNF0MKL-62" value="" style="shape=partialRectangle;connectable=0;fillColor=none;top=0;left=0;bottom=0;right=0;editable=1;overflow=hidden;hachureGap=4;fontColor=#393C56;strokeColor=#E07A5F;" vertex="1" parent="f66HRhsKyCVgUJNF0MKL-61">
          <mxGeometry width="30" height="30" as="geometry">
            <mxRectangle width="30" height="30" as="alternateBounds" />
          </mxGeometry>
        </mxCell>
        <mxCell id="f66HRhsKyCVgUJNF0MKL-63" value="nama" style="shape=partialRectangle;connectable=0;fillColor=none;top=0;left=0;bottom=0;right=0;align=left;spacingLeft=6;overflow=hidden;hachureGap=4;fontColor=#393C56;strokeColor=#E07A5F;" vertex="1" parent="f66HRhsKyCVgUJNF0MKL-61">
          <mxGeometry x="30" width="150" height="30" as="geometry">
            <mxRectangle width="150" height="30" as="alternateBounds" />
          </mxGeometry>
        </mxCell>
        <mxCell id="f66HRhsKyCVgUJNF0MKL-64" value="" style="shape=tableRow;horizontal=0;startSize=0;swimlaneHead=0;swimlaneBody=0;fillColor=none;collapsible=0;dropTarget=0;points=[[0,0.5],[1,0.5]];portConstraint=eastwest;top=0;left=0;right=0;bottom=0;hachureGap=4;fontColor=#393C56;strokeColor=#E07A5F;" vertex="1" parent="f66HRhsKyCVgUJNF0MKL-57">
          <mxGeometry y="90" width="180" height="30" as="geometry" />
        </mxCell>
        <mxCell id="f66HRhsKyCVgUJNF0MKL-65" value="" style="shape=partialRectangle;connectable=0;fillColor=none;top=0;left=0;bottom=0;right=0;editable=1;overflow=hidden;hachureGap=4;fontColor=#393C56;strokeColor=#E07A5F;" vertex="1" parent="f66HRhsKyCVgUJNF0MKL-64">
          <mxGeometry width="30" height="30" as="geometry">
            <mxRectangle width="30" height="30" as="alternateBounds" />
          </mxGeometry>
        </mxCell>
        <mxCell id="f66HRhsKyCVgUJNF0MKL-66" value="" style="shape=partialRectangle;connectable=0;fillColor=none;top=0;left=0;bottom=0;right=0;align=left;spacingLeft=6;overflow=hidden;hachureGap=4;fontColor=#393C56;strokeColor=#E07A5F;" vertex="1" parent="f66HRhsKyCVgUJNF0MKL-64">
          <mxGeometry x="30" width="150" height="30" as="geometry">
            <mxRectangle width="150" height="30" as="alternateBounds" />
          </mxGeometry>
        </mxCell>
        <mxCell id="f66HRhsKyCVgUJNF0MKL-67" value="" style="shape=tableRow;horizontal=0;startSize=0;swimlaneHead=0;swimlaneBody=0;fillColor=none;collapsible=0;dropTarget=0;points=[[0,0.5],[1,0.5]];portConstraint=eastwest;top=0;left=0;right=0;bottom=0;hachureGap=4;fontColor=#393C56;strokeColor=#E07A5F;" vertex="1" parent="f66HRhsKyCVgUJNF0MKL-57">
          <mxGeometry y="120" width="180" height="30" as="geometry" />
        </mxCell>
        <mxCell id="f66HRhsKyCVgUJNF0MKL-68" value="" style="shape=partialRectangle;connectable=0;fillColor=none;top=0;left=0;bottom=0;right=0;editable=1;overflow=hidden;hachureGap=4;fontColor=#393C56;strokeColor=#E07A5F;" vertex="1" parent="f66HRhsKyCVgUJNF0MKL-67">
          <mxGeometry width="30" height="30" as="geometry">
            <mxRectangle width="30" height="30" as="alternateBounds" />
          </mxGeometry>
        </mxCell>
        <mxCell id="f66HRhsKyCVgUJNF0MKL-69" value="" style="shape=partialRectangle;connectable=0;fillColor=none;top=0;left=0;bottom=0;right=0;align=left;spacingLeft=6;overflow=hidden;hachureGap=4;fontColor=#393C56;strokeColor=#E07A5F;" vertex="1" parent="f66HRhsKyCVgUJNF0MKL-67">
          <mxGeometry x="30" width="150" height="30" as="geometry">
            <mxRectangle width="150" height="30" as="alternateBounds" />
          </mxGeometry>
        </mxCell>
        <mxCell id="f66HRhsKyCVgUJNF0MKL-83" style="edgeStyle=none;curved=1;rounded=0;orthogonalLoop=1;jettySize=auto;html=1;exitX=0.5;exitY=0;exitDx=0;exitDy=0;entryX=0.5;entryY=1;entryDx=0;entryDy=0;fontColor=#393C56;endArrow=ERmandOne;startSize=14;endSize=14;sourcePerimeterSpacing=8;targetPerimeterSpacing=8;strokeColor=#E07A5F;fillColor=#F2CC8F;endFill=0;startArrow=ERoneToMany;startFill=0;" edge="1" parent="1" source="f66HRhsKyCVgUJNF0MKL-70" target="f66HRhsKyCVgUJNF0MKL-44">
          <mxGeometry relative="1" as="geometry" />
        </mxCell>
        <mxCell id="f66HRhsKyCVgUJNF0MKL-70" value="Petugas" style="shape=table;startSize=30;container=1;collapsible=1;childLayout=tableLayout;fixedRows=1;rowLines=0;fontStyle=1;align=center;resizeLast=1;hachureGap=4;fontColor=#393C56;strokeColor=#E07A5F;fillColor=#F2CC8F;" vertex="1" parent="1">
          <mxGeometry x="90" y="640" width="180" height="160" as="geometry" />
        </mxCell>
        <mxCell id="f66HRhsKyCVgUJNF0MKL-71" value="" style="shape=tableRow;horizontal=0;startSize=0;swimlaneHead=0;swimlaneBody=0;fillColor=none;collapsible=0;dropTarget=0;points=[[0,0.5],[1,0.5]];portConstraint=eastwest;top=0;left=0;right=0;bottom=1;hachureGap=4;fontColor=#393C56;strokeColor=#E07A5F;" vertex="1" parent="f66HRhsKyCVgUJNF0MKL-70">
          <mxGeometry y="30" width="180" height="30" as="geometry" />
        </mxCell>
        <mxCell id="f66HRhsKyCVgUJNF0MKL-72" value="PK" style="shape=partialRectangle;connectable=0;fillColor=none;top=0;left=0;bottom=0;right=0;fontStyle=1;overflow=hidden;hachureGap=4;fontColor=#393C56;strokeColor=#E07A5F;" vertex="1" parent="f66HRhsKyCVgUJNF0MKL-71">
          <mxGeometry width="30" height="30" as="geometry">
            <mxRectangle width="30" height="30" as="alternateBounds" />
          </mxGeometry>
        </mxCell>
        <mxCell id="f66HRhsKyCVgUJNF0MKL-73" value="id_petugas" style="shape=partialRectangle;connectable=0;fillColor=none;top=0;left=0;bottom=0;right=0;align=left;spacingLeft=6;fontStyle=5;overflow=hidden;hachureGap=4;fontColor=#393C56;strokeColor=#E07A5F;" vertex="1" parent="f66HRhsKyCVgUJNF0MKL-71">
          <mxGeometry x="30" width="150" height="30" as="geometry">
            <mxRectangle width="150" height="30" as="alternateBounds" />
          </mxGeometry>
        </mxCell>
        <mxCell id="f66HRhsKyCVgUJNF0MKL-74" value="" style="shape=tableRow;horizontal=0;startSize=0;swimlaneHead=0;swimlaneBody=0;fillColor=none;collapsible=0;dropTarget=0;points=[[0,0.5],[1,0.5]];portConstraint=eastwest;top=0;left=0;right=0;bottom=0;hachureGap=4;fontColor=#393C56;strokeColor=#E07A5F;" vertex="1" parent="f66HRhsKyCVgUJNF0MKL-70">
          <mxGeometry y="60" width="180" height="30" as="geometry" />
        </mxCell>
        <mxCell id="f66HRhsKyCVgUJNF0MKL-75" value="" style="shape=partialRectangle;connectable=0;fillColor=none;top=0;left=0;bottom=0;right=0;editable=1;overflow=hidden;hachureGap=4;fontColor=#393C56;strokeColor=#E07A5F;" vertex="1" parent="f66HRhsKyCVgUJNF0MKL-74">
          <mxGeometry width="30" height="30" as="geometry">
            <mxRectangle width="30" height="30" as="alternateBounds" />
          </mxGeometry>
        </mxCell>
        <mxCell id="f66HRhsKyCVgUJNF0MKL-76" value="nama" style="shape=partialRectangle;connectable=0;fillColor=none;top=0;left=0;bottom=0;right=0;align=left;spacingLeft=6;overflow=hidden;hachureGap=4;fontColor=#393C56;strokeColor=#E07A5F;" vertex="1" parent="f66HRhsKyCVgUJNF0MKL-74">
          <mxGeometry x="30" width="150" height="30" as="geometry">
            <mxRectangle width="150" height="30" as="alternateBounds" />
          </mxGeometry>
        </mxCell>
        <mxCell id="f66HRhsKyCVgUJNF0MKL-77" value="" style="shape=tableRow;horizontal=0;startSize=0;swimlaneHead=0;swimlaneBody=0;fillColor=none;collapsible=0;dropTarget=0;points=[[0,0.5],[1,0.5]];portConstraint=eastwest;top=0;left=0;right=0;bottom=0;hachureGap=4;fontColor=#393C56;strokeColor=#E07A5F;" vertex="1" parent="f66HRhsKyCVgUJNF0MKL-70">
          <mxGeometry y="90" width="180" height="30" as="geometry" />
        </mxCell>
        <mxCell id="f66HRhsKyCVgUJNF0MKL-78" value="" style="shape=partialRectangle;connectable=0;fillColor=none;top=0;left=0;bottom=0;right=0;editable=1;overflow=hidden;hachureGap=4;fontColor=#393C56;strokeColor=#E07A5F;" vertex="1" parent="f66HRhsKyCVgUJNF0MKL-77">
          <mxGeometry width="30" height="30" as="geometry">
            <mxRectangle width="30" height="30" as="alternateBounds" />
          </mxGeometry>
        </mxCell>
        <mxCell id="f66HRhsKyCVgUJNF0MKL-79" value="no_hp" style="shape=partialRectangle;connectable=0;fillColor=none;top=0;left=0;bottom=0;right=0;align=left;spacingLeft=6;overflow=hidden;hachureGap=4;fontColor=#393C56;strokeColor=#E07A5F;" vertex="1" parent="f66HRhsKyCVgUJNF0MKL-77">
          <mxGeometry x="30" width="150" height="30" as="geometry">
            <mxRectangle width="150" height="30" as="alternateBounds" />
          </mxGeometry>
        </mxCell>
        <mxCell id="f66HRhsKyCVgUJNF0MKL-80" value="" style="shape=tableRow;horizontal=0;startSize=0;swimlaneHead=0;swimlaneBody=0;fillColor=none;collapsible=0;dropTarget=0;points=[[0,0.5],[1,0.5]];portConstraint=eastwest;top=0;left=0;right=0;bottom=0;hachureGap=4;fontColor=#393C56;strokeColor=#E07A5F;" vertex="1" parent="f66HRhsKyCVgUJNF0MKL-70">
          <mxGeometry y="120" width="180" height="30" as="geometry" />
        </mxCell>
        <mxCell id="f66HRhsKyCVgUJNF0MKL-81" value="" style="shape=partialRectangle;connectable=0;fillColor=none;top=0;left=0;bottom=0;right=0;editable=1;overflow=hidden;hachureGap=4;fontColor=#393C56;strokeColor=#E07A5F;" vertex="1" parent="f66HRhsKyCVgUJNF0MKL-80">
          <mxGeometry width="30" height="30" as="geometry">
            <mxRectangle width="30" height="30" as="alternateBounds" />
          </mxGeometry>
        </mxCell>
        <mxCell id="f66HRhsKyCVgUJNF0MKL-82" value="" style="shape=partialRectangle;connectable=0;fillColor=none;top=0;left=0;bottom=0;right=0;align=left;spacingLeft=6;overflow=hidden;hachureGap=4;fontColor=#393C56;strokeColor=#E07A5F;" vertex="1" parent="f66HRhsKyCVgUJNF0MKL-80">
          <mxGeometry x="30" width="150" height="30" as="geometry">
            <mxRectangle width="150" height="30" as="alternateBounds" />
          </mxGeometry>
        </mxCell>
        <mxCell id="f66HRhsKyCVgUJNF0MKL-84" style="edgeStyle=none;curved=1;rounded=0;orthogonalLoop=1;jettySize=auto;html=1;exitX=0;exitY=0.5;exitDx=0;exitDy=0;entryX=1;entryY=0.5;entryDx=0;entryDy=0;fontColor=#393C56;startArrow=ERoneToMany;startFill=0;endArrow=ERmandOne;endFill=0;startSize=14;endSize=14;sourcePerimeterSpacing=8;targetPerimeterSpacing=8;strokeColor=#E07A5F;fillColor=#F2CC8F;" edge="1" parent="1" source="f66HRhsKyCVgUJNF0MKL-64" target="f66HRhsKyCVgUJNF0MKL-51">
          <mxGeometry relative="1" as="geometry" />
        </mxCell>
        <mxCell id="f66HRhsKyCVgUJNF0MKL-101" style="edgeStyle=none;curved=1;rounded=0;orthogonalLoop=1;jettySize=auto;html=1;exitX=1;exitY=0.5;exitDx=0;exitDy=0;entryX=0;entryY=0.5;entryDx=0;entryDy=0;fontColor=#393C56;startArrow=ERoneToMany;startFill=0;endArrow=ERmandOne;endFill=0;startSize=14;endSize=14;sourcePerimeterSpacing=8;targetPerimeterSpacing=8;strokeColor=#E07A5F;fillColor=#F2CC8F;" edge="1" parent="1" source="f66HRhsKyCVgUJNF0MKL-8" target="f66HRhsKyCVgUJNF0MKL-34">
          <mxGeometry relative="1" as="geometry" />
        </mxCell>
        <mxCell id="f66HRhsKyCVgUJNF0MKL-102" style="edgeStyle=none;curved=1;rounded=0;orthogonalLoop=1;jettySize=auto;html=1;exitX=0;exitY=0.5;exitDx=0;exitDy=0;entryX=1;entryY=0.5;entryDx=0;entryDy=0;fontColor=#393C56;startArrow=ERoneToMany;startFill=0;endArrow=ERzeroToOne;endFill=0;startSize=14;endSize=14;sourcePerimeterSpacing=8;targetPerimeterSpacing=8;strokeColor=#E07A5F;fillColor=#F2CC8F;" edge="1" parent="1" source="f66HRhsKyCVgUJNF0MKL-21" target="f66HRhsKyCVgUJNF0MKL-34">
          <mxGeometry relative="1" as="geometry" />
        </mxCell>
      </root>
    </mxGraphModel>
  </diagram>
</mxfile>
